<?xml version="1.0" encoding="UTF-8"?>
<svg width="232px" height="80px" viewBox="0 0 232 80" version="1.1" xmlns="http://www.w3.org/2000/svg" xmlns:xlink="http://www.w3.org/1999/xlink">
    <!-- Generator: Sketch 44.1 (41455) - http://www.bohemiancoding.com/sketch -->
    <title>acronis</title>
    <desc>Created with Sketch.</desc>
    <defs></defs>
    <g id="Page-1" stroke="none" stroke-width="1" fill="none" fill-rule="evenodd">
        <g id="acronis" fill="#001F4D">
            <path d="M65.5230317,39.1365567 L68.7899379,31.7762169 L68.9598171,31.3123162 L69.1133616,31.3123162 L69.2865077,31.7762169 L72.5272787,39.1365567 L65.5230317,39.1365567 Z M74.8598497,44.3374714 L63.1871937,44.3374714 L64.2554721,41.9754982 L73.7915714,41.9754982 L74.8598497,44.3374714 Z M67.4341718,27 L56,52.2760536 L59.6458674,52.2760536 L61.8804312,47.173146 L76.1437439,47.173146 L78.3848416,52.2760536 L82.0339758,52.2760536 L70.599804,27 L67.4341718,27 Z M169.600457,41.1555047 C166.189481,40.413917 166.333551,39.5743221 166.333551,38.8262006 C166.333551,37.9310683 167.349232,36.7974518 168.995753,36.7974518 C170.384188,36.7974518 171.837961,37.4835021 171.837961,39.7964717 L175.163672,39.7964717 C175.242078,36.0623979 172.782097,33.759229 168.972885,33.759229 C165.598497,33.759229 162.850702,36.0918001 162.850702,38.9634107 C162.850702,42.5802025 165.745181,43.7102254 168.874877,44.3930088 C172.194054,45.118262 172.468474,46.1473375 172.468474,46.8693238 C172.468474,48.254492 171.057498,49.4338451 169.09376,49.4338451 C167.682457,49.4338451 165.529566,48.5485136 165.529566,45.8925188 L162.210389,45.8925188 C162.0049,50.067625 165.042796,52.4756615 169.097354,52.4756615 C172.955243,52.4756615 176,50.0055537 176,46.7321137 C175.996733,43.0241751 172.687357,41.8350212 169.583796,41.1587716 L169.600457,41.1555047 Z M121.664815,48.8980725 C118.250898,48.8980725 116.04247,46.4021562 116.04247,42.9653708 C116.04247,39.5285854 118.237831,36.9607971 121.664815,36.9607971 C125.0918,36.9607971 127.287161,39.5220516 127.287161,42.9621039 C127.287161,46.4021562 125.062398,48.8980725 121.664815,48.8980725 L121.664815,48.8980725 Z M121.664815,33.7200261 C116.41163,33.7200261 112.448873,37.6925841 112.448873,42.9621039 C112.448873,48.2316237 116.395296,52.2074485 121.664815,52.2074485 C126.934335,52.2074485 130.880758,48.2348906 130.880758,42.9653708 C130.880758,37.695851 126.891865,33.7200261 121.664815,33.7200261 L121.664815,33.7200261 Z M154.987259,52.2760536 L158.45018,52.2760536 L158.45018,33.9813786 L154.987259,33.9813786 L154.987259,52.2760536 Z M143.523685,33.5403463 C140.443319,33.5403463 138.564848,34.8471088 137.737994,35.7259066 L137.568115,35.7259066 L137.365567,33.9650441 L134.26854,33.9650441 L134.26854,52.259719 L137.728193,52.259719 L137.728193,40.7569422 C137.728193,38.1956877 140.047697,36.8366547 142.896439,36.8366547 C145.346619,36.8366547 147.084613,38.0519438 147.084613,40.5935969 L147.084613,52.2760536 L150.544267,52.2760536 L150.544267,40.3943156 C150.547533,35.327344 146.967004,33.5436132 143.526952,33.5436132 L143.523685,33.5403463 Z M106.467168,35.7259066 L106.297288,35.7259066 L106.09474,33.9650441 L102.997713,33.9650441 L102.997713,52.259719 L106.457367,52.259719 L106.457367,40.6916041 C106.457367,38.2479582 108.342372,36.9215943 110.825221,36.9215943 C111.043777,36.9059131 111.263639,36.9202875 111.478602,36.964064 L111.478602,33.6089513 C111.264293,33.5609278 111.044757,33.5400196 110.825221,33.5468801 C109.119569,33.5834695 107.520745,34.3848416 106.470434,35.7291735 L106.467168,35.7259066 Z M91.191114,36.9607971 C93.6576282,36.9607971 95.2780137,38.2675596 96.0326691,40.3845149 L99.7340738,40.3845149 C98.822607,36.2878144 95.5524338,33.7167592 91.1878471,33.7167592 C85.9836655,33.7167592 82.0405096,37.7579222 82.0405096,43.027442 C82.0405096,48.2972885 85.9607971,52.2041816 91.1878471,52.2041816 C95.5524338,52.2041816 98.718066,49.5187847 99.7340738,45.536426 L96.035936,45.536426 C95.2943483,47.5717086 93.6576282,48.9601437 91.1943809,48.9601437 C87.7739301,48.9601437 85.6406403,46.5197648 85.6406403,43.027442 C85.6406403,39.5351192 87.7739301,36.9607971 91.191114,36.9607971 L91.191114,36.9607971 Z" id="Fill-1"></path>
        </g>
    </g>
</svg>