<?xml version="1.0" encoding="utf-8"?>
<!-- Generator: Adobe Illustrator 21.1.0, SVG Export Plug-In . SVG Version: 6.00 Build 0)  -->
<svg version="1.1" id="图层_1" xmlns="http://www.w3.org/2000/svg" xmlns:xlink="http://www.w3.org/1999/xlink" x="0px" y="0px"
	 viewBox="0 0 123 24" style="enable-background:new 0 0 123 24;" xml:space="preserve">
<style type="text/css">
	.st0{fill:#FFFFFF;}
	.st1{filter:url(#Adobe_OpacityMaskFilter);}
	.st2{mask:url(#mask-2);fill:#FFFFFF;}
</style>
<title>Page 1</title>
<desc>Created with Sketch.</desc>
<g id="页面">
	<g id="设计-色彩" transform="translate(-130.000000, -16.000000)">
		<g id="Group">
			<g id="Page-1" transform="translate(130.000000, 16.000000)">
				<polygon id="Fill-1" class="st0" points="5.5,3.3 0,7.3 2,10 4,8.7 4,23.3 7.3,23.3 7.3,3.3 				"/>
				<g id="Group-11" transform="translate(9.777778, 0.000000)">
					<path id="Fill-2" class="st0" d="M17.1,9.4C15.8,7.4,13.5,6,10.9,6c-4.1,0-7.3,3.3-7.3,7.3c0,4,3.3,7.3,7.3,7.3
						c3.4,0,6.3-2.4,7.1-5.6l2.2,3.5c-1.8,3.2-5.3,5.4-9.3,5.4C5,24,0.2,19.2,0.2,13.3C0.2,7.4,5,2.7,10.9,2.7c3.8,0,7.2,2,9,5
						l6.1,9.5c1.3,2.1,3.6,3.4,6.2,3.4c4,0,7.3-3.3,7.3-7.3c0-4-3.3-7.3-7.3-7.3c-3.4,0-6.3,2.4-7.1,5.6l-2.2-3.5
						c1.8-3.2,5.3-5.4,9.3-5.4c5.9,0,10.7,4.8,10.7,10.7c0,5.9-4.8,10.7-10.7,10.7c-3.8,0-7.2-2-9-5L17.1,9.4z"/>
					<path id="Fill-4" class="st0" d="M107.6,10.5V8.7h-2.7V16v7.3h2.7V16c0-2.9,2.4-5.3,5.3-5.3V8C110.8,8,108.9,9,107.6,10.5"/>
					<g id="Group-8" transform="translate(86.222222, 8.000000)">
						<g id="Clip-7">
						</g>
						<defs>
							<filter id="Adobe_OpacityMaskFilter" filterUnits="userSpaceOnUse" x="0" y="0" width="16" height="16">
								<feColorMatrix  type="matrix" values="1 0 0 0 0  0 1 0 0 0  0 0 1 0 0  0 0 0 1 0"/>
							</filter>
						</defs>
						<mask maskUnits="userSpaceOnUse" x="0" y="0" width="16" height="16" id="mask-2">
							<g class="st1">
								<polygon id="path-1" class="st0" points="0,16 16,16 16,0 0,0 								"/>
							</g>
						</mask>
						<path id="Fill-6" class="st2" d="M3.1,6c0.8-2,2.7-3.3,4.9-3.3c2.2,0,4.1,1.4,4.9,3.3H3.1z M8,0C3.6,0,0,3.6,0,8
							c0,4.4,3.6,8,8,8c3.2,0,6-1.9,7.3-4.7h-3.1c-1,1.2-2.5,2-4.2,2c-2.7,0-5-2-5.3-4.7H16c0-0.2,0-0.4,0-0.7C16,3.6,12.4,0,8,0
							L8,0z"/>
					</g>
					<path id="Fill-9" class="st0" d="M86.2,8.6h-4V5.3c0-2.1,2.6-3.4,4.3-2.1l0.9-2.6c-1.6-0.9-3.5-0.8-5.1,0.1
						c-0.8,0.5-1.5,1.1-1.9,1.9c-0.5,0.8-0.7,1.7-0.7,2.7v3.3h-5.3V5.3c0-2.1,2.6-3.4,4.3-2.1l0.9-2.6c-1.6-0.9-3.5-0.8-5.1,0.1
						c-0.8,0.5-1.5,1.1-1.9,1.9c-0.5,0.8-0.7,1.7-0.7,2.7v3.3h-8.7l-6,6L54.2,12l-2,2l4.7,4.7l7.3-7.3h0.4c1.3,5-2.6,10-7.7,10
						c-5.4,0-9.4-5.5-7.5-10.7C51,5.9,56.8,3.9,61,6.5L63,4.6c-6-4.2-14.6-1-16.4,6.1C44.9,17.3,50,24,56.9,24
						c6.6,0,11.7-6.2,10.5-12.7h4.2v12h2.7v-12h5.3v12h2.7v-12h4V8.6z"/>
				</g>
			</g>
		</g>
	</g>
</g>
</svg>
