<?xml version="1.0" encoding="UTF-8"?>
<svg width="232px" height="80px" viewBox="0 0 232 80" version="1.1" xmlns="http://www.w3.org/2000/svg" xmlns:xlink="http://www.w3.org/1999/xlink">
    <!-- Generator: Sketch 44.1 (41455) - http://www.bohemiancoding.com/sketch -->
    <title>thoughtworks</title>
    <desc>Created with Sketch.</desc>
    <defs></defs>
    <g id="Page-1" stroke="none" stroke-width="1" fill="none" fill-rule="evenodd">
        <g id="thoughtworks" fill="#000000">
            <path d="M167.130788,33.8749042 L165.166834,33.8749042 L165.166834,47.959303 L167.144624,47.959303 C167.144624,45.8077646 167.202734,43.7016658 167.122924,41.6006645 C167.074862,40.3351993 167.384347,39.2207628 167.982199,38.1406972 C168.839436,36.5915255 169.875081,35.3098943 171.885349,35.4229108 L171.885349,33.6410066 C169.464085,33.2952574 168.206921,34.714664 167.130788,36.5712815 L167.130788,33.8749042 Z M187.865251,33.5102219 C186.014604,33.9317038 184.837106,35.1630892 184.631899,36.891398 C184.420721,38.669807 185.230479,40.0242581 187.039618,40.8707173 C187.542804,41.106217 188.074535,41.280548 188.591557,41.4864828 C189.332427,41.7816949 190.093104,42.037293 190.807031,42.3877026 C191.682036,42.817049 192.180416,43.521218 192.069147,44.5530768 C191.960354,45.5635265 191.371969,46.2381305 190.326128,46.5499456 C188.829387,46.9961862 187.139527,46.4427546 186.161846,45.1828237 C185.975427,44.9425179 185.799786,44.6939106 185.598657,44.4212726 C185.048429,44.7754689 184.549176,45.0968962 184.054728,45.4151194 C185.431608,47.9965868 188.7538,49.1596671 191.437506,48.018724 C193.137998,47.2956219 193.907851,45.9372385 193.994652,44.1298472 C194.080143,42.3492537 193.134357,41.2691881 191.610818,40.5941471 C190.948448,40.3006827 190.245444,40.0999909 189.574918,39.8231294 C188.861719,39.5283542 188.132646,39.24858 187.469838,38.8605953 C186.772806,38.4525122 186.435941,37.7776169 186.549831,36.9471781 C186.667654,36.0890678 187.186132,35.5413161 187.998657,35.303923 C189.272278,34.9315218 190.449048,35.1249316 191.452799,36.0379482 C191.752671,36.3105861 192.008415,36.6315765 192.328531,36.9780538 C192.796764,36.6130802 193.246791,36.2622336 193.689536,35.9170671 C192.602043,34.0007371 190.124563,32.9956761 187.865251,33.5102219 L187.865251,33.5102219 Z M154.087715,40.9139723 C154.357149,42.16065 154.515459,43.3901421 154.900094,44.5443384 C155.352597,45.9027218 156.383,46.667477 157.868818,46.6904881 C159.278758,46.7123341 160.395816,46.0046697 160.929732,44.5543875 C161.831243,42.1054524 161.846972,39.6141362 160.882836,37.1737938 C160.354163,35.8356543 159.331917,35.1156106 157.837069,35.1392043 C156.366834,35.1625067 155.367598,35.9230383 154.917425,37.2370016 C154.515605,38.4092572 154.359042,39.6654014 154.087715,40.9139723 L154.087715,40.9139723 Z M163.609652,41.0619425 C163.571786,42.5819862 163.397309,44.1630531 162.635612,45.6228019 C161.682982,47.4485438 160.156239,48.3555892 158.119319,48.4169036 C155.974771,48.481422 154.289717,47.6651103 153.244023,45.7390225 C152.089827,43.6129711 152.087788,41.3072001 152.35926,39.0005552 C152.465141,38.1028308 152.738507,37.1901055 153.114112,36.365638 C154.04446,34.3236208 155.729077,33.3839521 157.949066,33.3985161 C160.173133,33.4129345 161.798037,34.4136263 162.75693,36.4330693 C163.437797,37.8670398 163.593632,39.4070362 163.609652,41.0619425 L163.609652,41.0619425 Z M183.287352,47.2618334 C182.068054,44.7303205 180.870166,42.1880303 179.608633,39.6776352 C179.252252,38.9683688 179.221522,38.4768341 179.791265,37.83864 C180.897692,36.5995357 181.893141,35.2612505 182.959516,33.9333058 C181.116734,33.5888675 180.836377,33.687757 179.805393,34.9995356 C179.595671,35.2664936 179.385804,35.5333059 179.173315,35.7980792 C178.011255,37.2463225 176.848465,38.6938376 175.542221,40.3203441 L175.542221,28.0648913 L173.557732,28.0648913 L173.557732,47.9619245 L175.543678,47.9619245 C175.543678,46.5406246 175.541784,45.163308 175.545425,43.7859914 C175.546008,43.5691335 175.490082,43.2903787 175.599458,43.1456127 C176.302753,42.2157019 177.044642,41.3150647 177.829496,40.335345 C178.982381,42.7957856 180.064777,45.1238396 181.171786,47.439951 C181.27956,47.6655473 181.522487,47.9533317 181.732063,47.9795469 C182.320594,48.0532407 182.924271,48.0051795 183.597856,48.0051795 C183.470567,47.6987532 183.390028,47.4750503 183.287352,47.2618334 L183.287352,47.2618334 Z M125.910616,33.5938192 L124.209396,33.5938192 L124.209396,36.8147915 L125.927947,36.8147915 L125.927947,37.6475605 C125.928093,39.7348716 125.912509,41.8223285 125.932171,43.9093484 C125.954308,46.2478884 127.052287,47.842791 129.098237,48.1601404 C130.163301,48.3254417 131.297399,48.0686785 132.396398,47.9617788 C132.5266,47.9491082 132.726272,47.6817133 132.732681,47.5258786 C132.766469,46.7059259 132.748555,45.8839343 132.748555,44.990579 C132.421157,45.1330149 132.166287,45.26278 131.899038,45.3568634 C130.634009,45.8020846 129.798473,45.2808394 129.777064,43.9622156 C129.740946,41.754169 129.772258,39.5451028 129.760024,37.3366193 C129.75784,36.9352357 129.886877,36.7728472 130.305591,36.786246 C131.097873,36.811733 131.89161,36.7936737 132.693066,36.7936737 L132.693066,33.5638174 L129.737741,33.5638174 L129.737741,30.0333604 L125.910616,30.0333604 L125.910616,33.5938192 Z M53.3363558,31.3901418 L53.3363558,28.055716 L39,28.055716 L39,31.4199979 L44.1935192,31.4199979 L44.1935192,47.9710998 L48.2013838,47.9710998 L48.2013838,31.3901418 L53.3363558,31.3901418 Z M72.0751147,40.8152285 C72.3208092,41.9159749 72.5054806,43.0595395 72.8440934,44.1556254 C73.0957592,44.9703351 73.730021,45.4853178 74.6479893,45.4774533 C75.569453,45.4697343 76.1492455,44.9157201 76.4421274,44.1209631 C77.2492638,41.930102 77.2475161,39.7095303 76.4558175,37.5153194 C76.1574014,36.6880847 75.5512481,36.1209629 74.6031322,36.1343618 C73.6579292,36.147615 73.0391053,36.7215819 72.78642,37.559157 C72.4753332,38.5905789 72.3178964,39.6683142 72.0751147,40.8152285 L72.0751147,40.8152285 Z M80.9630814,40.9463044 C80.9355555,42.6114055 80.5509205,44.3124796 79.5039152,45.8183963 C77.2030959,49.127335 72.2308038,49.1952032 69.8468241,45.9509286 C67.8065546,43.1744494 67.7686882,38.5447023 69.7633724,35.7457945 C72.2969243,32.1904331 77.7630814,32.5162295 79.868015,36.3448115 C80.633207,37.7366921 80.9512846,39.2353267 80.9630814,40.9463044 L80.9630814,40.9463044 Z M94.4273454,33.6343071 L90.6593497,33.6343071 L90.6593497,34.4651828 C90.6593497,37.1327234 90.5807041,39.8036137 90.6947402,42.4660569 C90.7464424,43.6747225 90.1854374,44.3001002 89.2961601,44.8296469 C87.7750969,45.7353815 86.6015305,45.1373841 86.4553081,43.388977 C86.4350641,43.1479429 86.4366662,42.9045786 86.4365205,42.6622338 C86.4353554,39.9220189 86.4357923,37.1819497 86.4357923,34.4417348 L86.4357923,33.6354722 L82.6951769,33.6354722 C82.6663402,33.749217 82.6337168,33.8176678 82.6335712,33.8864098 C82.6329886,37.4508009 82.569344,41.0170854 82.6584756,44.5792919 C82.7257613,47.2711544 84.9373033,48.8734847 87.5355193,48.1572276 C88.60539,47.8623068 89.5944307,47.2743585 90.6707096,46.7972421 L90.6707096,47.9766341 L94.4273454,47.9766341 L94.4273454,33.6343071 Z M147.523287,43.7639997 C147.499257,43.6806937 147.469983,43.5982615 147.452069,43.5134991 C146.393558,38.5377116 145.336795,33.5613415 144.275226,28.5861366 C144.23634,28.4037954 144.163083,28.0838245 144.085603,28.077562 C143.485421,28.028627 142.871985,27.9858089 142.282144,28.0733385 C142.133008,28.0953301 142.014312,28.5848258 141.949648,28.8746492 C140.903079,33.5556616 139.868454,38.2392954 138.827274,42.9214729 C138.761882,43.2156655 138.665614,43.503013 138.546043,43.9260969 C138.473078,43.7108412 138.444241,43.6486529 138.430842,43.5835519 C137.462919,38.8605953 136.49354,34.1379299 135.531151,29.4139538 C135.238706,27.9785269 135.247882,27.9756141 133.767452,28.0076549 C133.601423,28.0112959 133.435976,28.0364916 133.244605,28.054114 C133.285675,28.3210719 133.310871,28.5593388 133.359952,28.792654 C134.601532,34.6951482 135.846171,40.5970599 137.088916,46.4994085 C137.409761,48.0230932 137.407722,47.9987714 138.843003,48.0204717 C139.364831,48.0284819 139.532171,47.8614329 139.636304,47.3528584 C140.126673,44.956208 140.673405,42.5712089 141.197855,40.1815492 C141.792939,37.4698798 142.385839,34.7576277 142.979613,32.045667 C143.032626,32.0411521 143.085639,32.0366373 143.138652,32.0321225 C144.244496,37.3465228 145.35034,42.6610687 146.453125,47.9610506 L148.56403,47.9610506 C150.084511,41.3153559 151.595962,34.7084014 153.119646,28.048871 L151.101514,28.048871 C149.952124,33.3054522 148.807103,38.5423721 147.661936,43.7792919 C147.615769,43.7741945 147.569601,43.7690971 147.523287,43.7639997 L147.523287,43.7639997 Z M114.782999,28.0574637 L111.019518,28.0574637 L111.019518,47.9607594 L114.811835,47.9607594 L114.811835,47.1323596 C114.811835,44.2699528 114.806447,41.407546 114.820574,38.5452849 C114.821884,38.2745403 114.858731,37.9095667 115.029858,37.7522756 C115.505227,37.3149189 116.016277,36.8711541 116.59272,36.5980793 C117.837796,36.0082376 118.719208,36.5220552 118.950339,37.8887401 C119.006556,38.2210904 119.030295,38.562616 119.031024,38.9002093 C119.037286,41.6654743 119.034665,44.4307392 119.034665,47.1961498 L119.034665,47.9562445 L122.82538,47.9562445 C122.82538,44.2226198 122.942038,40.5353086 122.785766,36.8595029 C122.675517,34.2646366 120.585438,32.8260056 118.047808,33.4349261 C116.947208,33.6991169 115.929039,34.3074548 114.782999,34.79797 L114.782999,28.0574637 Z M66.7728025,47.5736485 C66.7741133,44.2973331 66.7803758,41.0211633 66.7668313,37.7449936 C66.764938,37.2632167 66.7052256,36.7741579 66.6083751,36.3015564 C66.1780091,34.2011376 64.326052,32.8983887 62.2320414,33.3750681 C61.2183877,33.6059073 60.2795928,34.1698251 59.3113787,34.5930546 C59.1307852,34.6719915 58.9713095,34.7991351 58.6813404,34.9787091 L58.6813404,28.0487253 L54.8967417,28.0487253 L54.8967417,47.966148 L58.6925547,47.966148 L58.6925547,47.0748318 C58.6927003,44.2355818 58.687166,41.3960404 58.7018757,38.5567904 C58.7033321,38.2854633 58.7439656,37.9212178 58.916112,37.7618878 C59.3898786,37.3236573 59.8984532,36.877271 60.4740221,36.6044874 C61.7440021,36.0022664 62.68236,36.5669123 62.8529044,37.9534043 C62.8944117,38.2892499 62.9105778,38.6300473 62.9111603,38.9686601 C62.9156752,41.6867377 62.9136362,44.4048153 62.9134906,47.1227473 L62.9134906,47.9824597 L66.746733,47.9824597 C66.7583842,47.8074005 66.7728025,47.6904517 66.7728025,47.5736485 L66.7728025,47.5736485 Z M102.722703,50.4260061 C103.659605,50.2404609 104.755254,50.0671494 105.820319,49.78053 C106.074897,49.7120793 106.227819,49.2661299 106.427491,48.9937832 C106.15296,48.8072185 105.890226,48.481422 105.601567,48.4566632 C103.672567,48.2912163 101.738906,48.1694613 99.8043709,48.0919809 C99.5391606,48.0813492 99.1284561,48.3372385 99.0259256,48.5739034 C98.9193171,48.8197435 99.0104877,49.2683145 99.1880228,49.4895415 C99.3959966,49.7486349 99.7720388,49.9421903 100.107593,50.0153016 C100.906574,50.1894869 101.724487,50.2758514 102.722703,50.4260061 L102.722703,50.4260061 Z M104.129148,38.2312852 C104.126381,37.0023757 103.653634,36.1818404 102.784746,35.8969687 C101.359077,35.4297559 100.232407,36.3069451 100.067979,38.0123884 C99.9061732,39.6895776 100.658549,40.7865374 102.010233,40.8445021 C103.350557,40.9020299 104.133226,39.9368742 104.129148,38.2312852 L104.129148,38.2312852 Z M107.184965,35.9796922 C107.768544,37.0609229 108.05793,38.2151192 107.78602,39.457282 C107.332207,41.5323594 105.471802,43.0815311 103.123504,43.3170308 C102.62061,43.3672766 102.109851,43.3444112 101.602587,43.3445568 C101.239215,43.3447024 100.837249,43.2252777 100.523249,43.3448481 C100.192064,43.4711179 99.7866028,43.771573 99.696743,44.0787276 C99.5454231,44.595458 100.085165,44.7086202 100.448099,44.7323595 C101.584091,44.8064902 102.726781,44.7828965 103.862481,44.8605226 C104.898272,44.931158 105.944549,45.0077646 106.957184,45.2198163 C108.310907,45.5032315 109.318735,46.2774533 109.54302,47.7354544 C109.768471,49.2011745 109.373641,50.4845533 108.15682,51.4207267 C107.103261,52.2312128 105.858039,52.540115 104.567961,52.6863375 C102.627746,52.9062538 100.695396,52.9052343 98.7942125,52.3781634 C98.5156033,52.3009743 98.2400526,52.204415 97.9742598,52.0906703 C95.4088128,50.9928366 95.0595683,48.7454672 97.1808135,47.0091482 C95.6647021,45.0344167 95.7844181,44.2887403 97.9710557,42.2649281 C97.7374493,41.9713181 97.4872399,41.6828054 97.2654303,41.3737575 C94.9889329,38.201866 96.7817602,34.0710812 100.698746,33.4110411 C102.285201,33.1437919 103.779758,33.3450663 105.230914,34.0314671 C105.42811,34.1246767 105.805172,34.1003548 105.963774,33.9682594 C106.780377,33.2878298 107.700675,33.0556798 108.740544,33.1196157 C109.184746,33.146996 109.407138,33.2668576 109.382816,33.7595574 C109.349611,34.4356179 109.374661,35.1145912 109.374661,35.8707536 C108.61777,35.7224921 107.882725,35.3339249 107.184965,35.9796922 L107.184965,35.9796922 Z" id="Fill-1"></path>
        </g>
    </g>
</svg>