<?xml version="1.0" encoding="UTF-8"?>
<svg width="232px" height="80px" viewBox="0 0 232 80" version="1.1" xmlns="http://www.w3.org/2000/svg" xmlns:xlink="http://www.w3.org/1999/xlink">
    <!-- Generator: Sketch 44.1 (41455) - http://www.bohemiancoding.com/sketch -->
    <title>zendesk</title>
    <desc>Created with Sketch.</desc>
    <defs></defs>
    <g id="Page-1" stroke="none" stroke-width="1" fill="none" fill-rule="evenodd">
        <g id="zendesk" fill="#03363D">
            <g id="Group" transform="translate(40.000000, 24.000000)">
                <path d="M106.1103,17.1753 C105.9648,14.4708 103.6548,12.3948 100.9503,12.5403 C98.1753,12.3768 95.7513,14.4003 95.4153,17.1603 L106.1103,17.1753 Z M101.4453,25.1103 C103.4493,25.1568 105.3888,24.4008 106.8288,23.0103 L109.5003,25.9038 C107.4048,28.0668 104.4813,29.2248 101.4753,29.0838 C94.9503,29.0838 90.7353,24.7353 90.7353,18.8553 C90.6093,13.3308 94.9878,8.7513 100.5123,8.6268 C100.6383,8.6238 100.7643,8.6223 100.8903,8.6253 C107.3703,8.6253 111.0453,13.5753 110.7138,20.4453 L95.4303,20.4453 C95.8713,23.3553 98.5173,25.4073 101.4453,25.1103 L101.4453,25.1103 Z" id="Fill-1"></path>
                <polygon id="Fill-3" points="0 24.8994 11.79 12.8994 0.27 12.8994 0.27 9.1044 17.25 9.1044 17.25 12.9444 5.46 24.9444 17.46 24.9444 17.46 28.7259 0 28.7259"></polygon>
                <path d="M36.16485,17.1753 C36.01185,14.4768 33.70335,12.4098 31.00485,12.5553 C28.24635,12.4083 25.84335,14.4183 25.49985,17.1603 L36.16485,17.1753 Z M31.49985,25.1103 C33.50385,25.1568 35.44335,24.4008 36.88485,23.0103 L39.55485,25.9038 C37.45935,28.0668 34.53735,29.2248 31.52985,29.0838 C25.00485,29.0838 20.78985,24.7353 20.78985,18.8553 C20.66535,13.3308 25.04235,8.7513 30.56685,8.6268 C30.69285,8.6238 30.81885,8.6223 30.94485,8.6253 C37.42485,8.6253 41.09985,13.5753 40.76985,20.4453 L25.49985,20.4453 C25.94085,23.3478 28.57785,25.3983 31.49985,25.1103 L31.49985,25.1103 Z" id="Fill-5"></path>
                <path d="M82.84575,18.85545 C82.84725,15.42495 80.06775,12.64395 76.63725,12.64245 C73.20825,12.63945 70.42725,15.41895 70.42575,18.84945 L70.42575,18.85545 C70.42275,22.28445 73.20225,25.06695 76.63125,25.06845 C80.06175,25.06995 82.84275,22.29045 82.84575,18.86145 L82.84575,18.85545 Z M66.27075,18.85545 C66.03825,13.44945 70.23075,8.88045 75.63525,8.64945 C75.78825,8.64195 75.94125,8.63895 76.09575,8.63895 C78.60825,8.62095 80.99925,9.72045 82.62075,11.63895 L82.62075,0.00045 L86.79075,0.00045 L86.79075,28.68045 L82.62075,28.68045 L82.62075,25.98045 C81.02175,27.95895 78.60975,29.10195 76.06425,29.08395 C70.60575,29.03895 66.21825,24.57495 66.26475,19.11645 C66.26475,19.02945 66.26625,18.94245 66.27075,18.85545 L66.27075,18.85545 Z" id="Fill-7"></path>
                <path d="M113.3247,24.5244 L117.0897,22.4994 C118.1037,24.3129 120.0387,25.4169 122.1147,25.3659 C124.4712,25.3659 125.6847,24.1494 125.6847,22.7694 C125.6847,21.3894 123.4047,20.8509 120.9297,20.3394 C117.5847,19.6344 114.1347,18.5409 114.1347,14.4909 C114.1347,11.3844 117.1347,8.4909 121.7262,8.4909 C124.8432,8.3019 127.8342,9.7434 129.6297,12.3009 L126.1347,14.3394 C125.1552,12.8844 123.4932,12.0399 121.7397,12.1044 C119.5047,12.1044 118.3647,13.1994 118.3647,14.4609 C118.3647,15.7194 120.1662,16.2594 122.9997,16.8894 C126.2262,17.5959 129.8697,18.6609 129.8697,22.7409 C129.8697,25.4544 127.5147,29.1009 121.9347,29.0694 C118.4307,29.3274 115.0887,27.5619 113.3247,24.5244" id="Fill-9"></path>
                <polygon id="Fill-11" points="140.7144 19.96425 137.4159 23.57925 137.4159 28.69425 133.2459 28.69425 133.2459 -0.00075 137.4159 -0.00075 137.4159 18.77925 146.2494 8.99925 151.3194 8.99925 143.6544 17.41575 151.4994 28.68075 146.8059 28.68075"></polygon>
                <path d="M53.87985,8.63955 C48.92985,8.63955 44.78985,11.86455 44.78985,17.20455 L44.78985,28.67955 L49.03485,28.67955 L49.03485,17.73105 C48.75435,15.17655 50.59635,12.88005 53.14935,12.59955 C53.43135,12.56955 53.71635,12.56355 53.99985,12.58455 C57.14985,12.58455 58.70985,14.51955 58.70985,17.73105 L58.70985,28.67955 L62.99985,28.67955 L62.99985,17.20455 C62.99985,11.86455 58.82985,8.63955 53.87985,8.63955" id="Fill-13"></path>
            </g>
        </g>
    </g>
</svg>